<svg width="886" height="256" viewBox="0 0 886 256" fill="none" xmlns="http://www.w3.org/2000/svg">
<path d="M27.5391 118.639C25.7812 123.521 25.3906 127.135 26.3672 129.479C27.4414 131.725 31.2012 132.848 37.6465 132.848V138.121C35.3027 138.121 32.5684 138.121 29.4434 138.121C26.416 138.023 23.291 137.975 20.0684 137.975C16.8457 137.975 13.6719 138.023 10.5469 138.121C7.51953 138.121 4.83398 138.121 2.49023 138.121V132.555C5.12695 132.555 7.27539 132.311 8.93555 131.822C10.5957 131.334 12.0117 130.504 13.1836 129.332C14.3555 128.16 15.3809 126.646 16.2598 124.791C17.1387 122.838 18.1152 120.445 19.1895 117.613L51.8555 23.7168H57.5684L89.3555 117.906C90.332 120.836 91.3086 123.229 92.2852 125.084C93.2617 126.939 94.3848 128.404 95.6543 129.479C96.9238 130.65 98.3887 131.48 100.049 131.969C101.807 132.457 103.955 132.799 106.494 132.994V138.121C104.15 138.121 101.221 138.121 97.7051 138.121C94.2871 138.023 90.7715 137.975 87.1582 137.975C83.4473 137.975 79.8828 138.023 76.4648 138.121C73.0469 138.121 70.166 138.121 67.8223 138.121V132.848C70.9473 132.848 73.3398 132.701 75 132.408C76.7578 132.018 77.9297 131.285 78.5156 130.211C79.1016 129.234 79.1992 127.818 78.8086 125.963C78.418 124.01 77.7344 121.471 76.7578 118.346L69.7266 97.3984H35.0098L27.5391 118.639ZM67.6758 90.8066L52.5879 46.1289L37.207 90.8066H67.6758ZM192.627 138.121C187.939 138.023 182.129 137.926 175.195 137.828C168.262 137.73 161.084 137.682 153.662 137.682C146.24 137.682 139.062 137.73 132.129 137.828C125.195 137.926 119.336 138.023 114.551 138.121V132.994C117.48 132.994 119.873 132.799 121.729 132.408C123.584 132.018 125 131.285 125.977 130.211C126.953 129.137 127.588 127.623 127.881 125.67C128.271 123.717 128.467 121.08 128.467 117.76V47.0078C128.467 43.9805 128.271 41.5879 127.881 39.8301C127.588 38.0723 126.953 36.7051 125.977 35.7285C125 34.8496 123.584 34.3125 121.729 34.1172C119.873 33.8242 117.48 33.6289 114.551 33.5312V27.9648C116.309 28.1602 119.043 28.3066 122.754 28.4043C126.562 28.4043 130.566 28.4043 134.766 28.4043C139.062 28.4043 143.164 28.4043 147.07 28.4043C150.977 28.3066 153.955 28.1602 156.006 27.9648V33.5312C152.979 33.6289 150.537 33.8242 148.682 34.1172C146.826 34.3125 145.361 34.8984 144.287 35.875C143.311 36.7539 142.627 38.0723 142.236 39.8301C141.943 41.5879 141.797 43.9805 141.797 47.0078V117.76C141.797 120.982 142.139 123.521 142.822 125.377C143.506 127.232 144.824 128.648 146.777 129.625C148.633 130.602 151.27 131.236 154.688 131.529C158.203 131.725 162.695 131.822 168.164 131.822C172.07 131.822 175.342 131.627 177.979 131.236C180.713 130.748 183.008 129.82 184.863 128.453C186.621 126.988 188.135 125.035 189.404 122.594C190.674 120.055 191.846 116.734 192.92 112.633H198.926L192.627 138.121ZM233.496 77.3301H254.443C257.959 77.3301 260.4 76.5 261.768 74.8398C263.135 73.082 263.818 69.4199 263.818 63.8535H269.824V100.035H263.818C263.818 96.8125 263.672 94.2246 263.379 92.2715C263.184 90.3184 262.744 88.8047 262.061 87.7305C261.377 86.6562 260.4 85.9727 259.131 85.6797C257.861 85.2891 256.25 85.0938 254.297 85.0938H233.496V118.492C233.496 121.422 233.691 123.766 234.082 125.523C234.473 127.281 235.254 128.648 236.426 129.625C237.695 130.602 239.404 131.236 241.553 131.529C243.799 131.725 246.729 131.822 250.342 131.822H261.182C264.893 131.822 267.969 131.578 270.41 131.09C272.949 130.504 275.049 129.479 276.709 128.014C278.467 126.646 279.932 124.742 281.104 122.301C282.373 119.762 283.594 116.539 284.766 112.633H291.211C289.941 116.637 288.623 120.934 287.256 125.523C285.986 130.016 284.912 134.215 284.033 138.121C277.783 138.023 271.289 137.975 264.551 137.975C257.812 137.877 251.025 137.828 244.189 137.828C237.451 137.828 230.811 137.877 224.268 137.975C217.725 137.975 211.523 138.023 205.664 138.121V132.848C208.691 132.848 211.133 132.652 212.988 132.262C214.941 131.871 216.455 131.139 217.529 130.064C218.506 129.088 219.189 127.672 219.58 125.816C219.971 123.863 220.166 121.422 220.166 118.492V46.7148C220.166 43.7852 219.971 41.4902 219.58 39.8301C219.189 38.0723 218.506 36.7539 217.529 35.875C216.455 34.9961 214.941 34.4102 212.988 34.1172C211.133 33.8242 208.691 33.6777 205.664 33.6777V28.2578C211.328 28.4531 217.334 28.5996 223.682 28.6973C230.029 28.6973 236.426 28.6973 242.871 28.6973C249.316 28.6973 255.664 28.6973 261.914 28.6973C268.164 28.5996 274.023 28.4531 279.492 28.2578V53.1602H273.633C273.145 49.0586 272.559 45.7871 271.875 43.3457C271.289 40.9043 270.264 39 268.799 37.6328C267.432 36.3633 265.527 35.5332 263.086 35.1426C260.645 34.6543 257.471 34.4102 253.564 34.4102H233.496V77.3301ZM381.885 127.721C382.861 129.088 384.131 130.113 385.693 130.797C387.256 131.48 388.867 131.969 390.527 132.262C392.188 132.652 393.75 132.848 395.215 132.848C396.68 132.848 397.852 132.848 398.73 132.848V138.121C397.363 138.121 395.557 138.121 393.311 138.121C391.064 138.023 388.721 137.975 386.279 137.975C383.838 137.975 381.494 138.023 379.248 138.121C377.1 138.121 375.439 138.121 374.268 138.121L333.691 81.5781L324.023 91.2461V118.199C324.023 121.422 324.17 124.01 324.463 125.963C324.756 127.818 325.391 129.283 326.367 130.357C327.246 131.334 328.467 132.018 330.029 132.408C331.689 132.701 333.838 132.848 336.475 132.848V138.268C334.717 138.268 331.982 138.268 328.271 138.268C324.658 138.17 320.801 138.121 316.699 138.121C312.598 138.121 308.691 138.121 304.98 138.121C301.27 138.121 298.486 138.17 296.631 138.268V132.848C299.561 132.848 301.904 132.701 303.662 132.408C305.518 132.018 306.982 131.334 308.057 130.357C309.033 129.283 309.717 127.818 310.107 125.963C310.498 124.01 310.693 121.422 310.693 118.199V47.1543C310.693 44.127 310.498 41.7344 310.107 39.9766C309.814 38.2188 309.131 36.8516 308.057 35.875C307.08 34.9961 305.664 34.4102 303.809 34.1172C301.953 33.8242 299.561 33.6289 296.631 33.5312V27.9648C298.389 28.0625 301.123 28.1602 304.834 28.2578C308.545 28.2578 312.402 28.2578 316.406 28.2578C320.508 28.2578 324.316 28.2578 327.832 28.2578C331.445 28.1602 334.082 28.0625 335.742 27.9648V33.5312C333.301 33.6289 331.299 33.8242 329.736 34.1172C328.271 34.4102 327.1 34.9961 326.221 35.875C325.342 36.8516 324.756 38.2188 324.463 39.9766C324.17 41.7344 324.023 44.127 324.023 47.1543V81.7246L361.523 45.3965C361.914 45.0059 362.5 44.4199 363.281 43.6387C364.062 42.8574 364.844 42.0273 365.625 41.1484C366.309 40.2695 366.943 39.3906 367.529 38.5117C368.115 37.6328 368.408 36.9004 368.408 36.3145C368.408 35.1426 367.725 34.4102 366.357 34.1172C365.088 33.7266 362.939 33.5312 359.912 33.5312V27.9648C361.572 28.0625 363.916 28.1602 366.943 28.2578C369.971 28.3555 373.145 28.4043 376.465 28.4043C379.688 28.4043 382.764 28.4043 385.693 28.4043C388.623 28.4043 390.918 28.3066 392.578 28.1113V33.5312C390.723 33.5312 388.916 33.7754 387.158 34.2637C385.498 34.6543 383.691 35.4355 381.738 36.6074C379.688 37.877 377.393 39.5859 374.854 41.7344C372.412 43.7852 369.531 46.4707 366.211 49.791L342.041 73.5215L381.885 127.721ZM408.252 111.021H414.551C415.137 114.049 415.918 116.979 416.895 119.811C417.969 122.643 419.336 125.133 420.996 127.281C422.656 129.43 424.707 131.139 427.148 132.408C429.59 133.678 432.568 134.312 436.084 134.312C442.822 134.312 448.34 132.408 452.637 128.6C456.934 124.791 459.082 120.006 459.082 114.244C459.082 110.826 458.447 107.896 457.178 105.455C455.908 102.916 454.248 100.67 452.197 98.7168C450.146 96.8613 447.803 95.1523 445.166 93.5898C442.529 92.0273 439.795 90.416 436.963 88.7559C434.033 87.1934 431.055 85.5332 428.027 83.7754C425 81.9199 422.266 79.7715 419.824 77.3301C417.383 74.791 415.381 71.9102 413.818 68.6875C412.256 65.3672 411.475 61.4609 411.475 56.9688C411.475 51.6953 412.305 47.1055 413.965 43.1992C415.723 39.293 418.115 36.0215 421.143 33.3848C424.072 30.8457 427.588 28.9414 431.689 27.6719C435.791 26.3047 440.186 25.6211 444.873 25.6211C446.631 25.6211 448.291 25.7187 449.854 25.9141C451.416 26.1094 452.93 26.3047 454.395 26.5C455.859 26.6953 457.324 26.9395 458.789 27.2324C460.254 27.5254 461.816 27.7695 463.477 27.9648L466.26 49.3516H459.961C459.082 43.5898 457.275 39.293 454.541 36.4609C451.904 33.6289 447.949 32.2129 442.676 32.2129C435.938 32.2129 430.859 34.0684 427.441 37.7793C424.121 41.4902 422.461 46.0313 422.461 51.4023C422.461 54.8203 423.193 57.8965 424.658 60.6309C426.123 63.2676 428.027 65.6602 430.371 67.8086C432.715 70.0547 435.352 72.0566 438.281 73.8145C441.309 75.5723 444.385 77.1836 447.51 78.6484C450.439 80.2109 453.369 81.8711 456.299 83.6289C459.229 85.2891 461.816 87.2422 464.062 89.4883C466.406 91.7344 468.262 94.3711 469.629 97.3984C471.094 100.426 471.826 104.039 471.826 108.238C471.826 113.609 470.752 118.346 468.604 122.447C466.455 126.451 463.672 129.771 460.254 132.408C456.836 135.143 452.93 137.193 448.535 138.561C444.141 139.928 439.697 140.611 435.205 140.611C430.713 140.611 426.611 140.221 422.9 139.439C419.287 138.658 415.576 137.389 411.768 135.631L408.252 111.021ZM535.4 79.2344C543.896 80.5039 550.928 83.6777 556.494 88.7559C562.061 93.834 564.844 100.328 564.844 108.238C564.844 116.93 561.328 124.107 554.297 129.771C547.363 135.338 537.305 138.121 524.121 138.121C521.387 138.121 518.213 138.121 514.6 138.121C511.084 138.023 507.422 137.975 503.613 137.975C499.902 137.975 496.24 138.023 492.627 138.121C489.014 138.121 485.889 138.121 483.252 138.121V132.994C486.279 132.994 488.672 132.848 490.43 132.555C492.285 132.262 493.701 131.676 494.678 130.797C495.654 129.918 496.289 128.648 496.582 126.988C496.973 125.23 497.168 122.936 497.168 120.104V45.543C497.168 43.1016 496.973 41.1484 496.582 39.6836C496.289 38.1211 495.654 36.9004 494.678 36.0215C493.701 35.1426 492.285 34.5566 490.43 34.2637C488.672 33.873 486.279 33.6289 483.252 33.5312V28.2578C485.498 28.3555 488.232 28.4531 491.455 28.5508C494.678 28.5508 497.998 28.5508 501.416 28.5508C504.834 28.5508 508.154 28.5508 511.377 28.5508C514.697 28.4531 517.529 28.3555 519.873 28.2578C524.072 28.2578 528.223 28.6973 532.324 29.5762C536.523 30.4551 540.332 31.8711 543.75 33.8242C547.07 35.875 549.756 38.5605 551.807 41.8809C553.955 45.2012 555.029 49.3516 555.029 54.332C555.029 60.582 553.174 65.8555 549.463 70.1523C545.85 74.4492 541.162 77.4766 535.4 79.2344ZM510.498 77.3301H517.09C524.121 77.3301 529.98 75.6699 534.668 72.3496C539.355 69.0293 541.699 63.0234 541.699 54.332C541.699 46.5195 539.502 41.2461 535.107 38.5117C530.713 35.7773 524.902 34.4102 517.676 34.4102C516.699 34.4102 515.527 34.459 514.16 34.5566C512.891 34.5566 511.67 34.5566 510.498 34.5566V77.3301ZM510.498 120.25C510.498 123.082 510.645 125.279 510.938 126.842C511.23 128.307 511.865 129.43 512.842 130.211C513.916 130.992 515.43 131.48 517.383 131.676C519.336 131.773 522.021 131.822 525.439 131.822C533.154 131.822 539.307 130.064 543.896 126.549C548.486 122.936 550.781 117.369 550.781 109.85C550.781 100.768 547.998 94.1758 542.432 90.0742C536.865 85.875 529.59 83.7754 520.605 83.7754H510.498V120.25ZM602.637 86.8516V118.053C602.637 121.08 602.783 123.57 603.076 125.523C603.369 127.379 604.004 128.844 604.98 129.918C605.957 131.09 607.373 131.871 609.229 132.262C611.182 132.652 613.721 132.848 616.846 132.848V138.268C614.893 138.17 611.963 138.121 608.057 138.121C604.248 138.023 600.195 137.975 595.898 137.975C591.699 137.975 587.695 138.023 583.887 138.121C580.078 138.121 577.246 138.17 575.391 138.268V132.994C578.32 132.994 580.713 132.848 582.568 132.555C584.424 132.262 585.84 131.627 586.816 130.65C587.793 129.576 588.428 128.062 588.721 126.109C589.111 124.156 589.307 121.471 589.307 118.053V47.0078C589.307 44.0781 589.111 41.7344 588.721 39.9766C588.33 38.2188 587.646 36.8516 586.67 35.875C585.693 34.9961 584.277 34.4102 582.422 34.1172C580.664 33.8242 578.32 33.6289 575.391 33.5312V28.1113C577.734 28.209 580.811 28.3066 584.619 28.4043C588.428 28.4043 592.383 28.4043 596.484 28.4043C600.684 28.4043 604.736 28.4043 608.643 28.4043C612.646 28.3066 615.967 28.209 618.604 28.1113C625.537 28.1113 631.25 29.0879 635.742 31.041C640.234 32.8965 643.75 35.2402 646.289 38.0723C648.828 40.9043 650.586 43.9805 651.562 47.3008C652.637 50.5234 653.174 53.502 653.174 56.2363C653.174 59.752 652.539 63.0234 651.27 66.0508C650.098 69.0781 648.535 71.7637 646.582 74.1074C644.629 76.4512 642.383 78.4531 639.844 80.1133C637.305 81.7734 634.668 82.9941 631.934 83.7754C633.691 86.9004 635.742 90.3184 638.086 94.0293C640.527 97.6426 643.018 101.207 645.557 104.723C647.998 108.336 650.391 111.705 652.734 114.83C655.176 117.955 657.324 120.592 659.18 122.74C661.23 125.377 663.672 127.721 666.504 129.771C669.336 131.822 672.803 132.848 676.904 132.848V138.268C673.389 138.072 669.385 137.975 664.893 137.975C660.4 137.975 656.592 138.072 653.467 138.268C650.732 134.654 647.852 130.65 644.824 126.256C641.797 121.861 638.721 117.369 635.596 112.779C632.568 108.189 629.59 103.648 626.66 99.1562C623.73 94.6641 621.094 90.5625 618.75 86.8516H602.637ZM602.637 79.9668C602.637 79.9668 602.979 80.0156 603.662 80.1133C604.346 80.1133 605.127 80.1133 606.006 80.1133C606.982 80.2109 607.959 80.2598 608.936 80.2598C610.01 80.2598 610.938 80.2598 611.719 80.2598C616.699 80.2598 620.898 79.5762 624.316 78.209C627.832 76.8418 630.664 75.084 632.812 72.9355C634.961 70.6895 636.475 68.248 637.354 65.6113C638.33 62.877 638.818 60.1426 638.818 57.4082C638.818 50.8652 636.865 45.3965 632.959 41.002C629.15 36.6074 622.412 34.4102 612.744 34.4102C610.498 34.4102 608.594 34.459 607.031 34.5566C605.566 34.5566 604.102 34.6543 602.637 34.8496V79.9668ZM685.4 111.021H691.699C692.285 114.049 693.066 116.979 694.043 119.811C695.117 122.643 696.484 125.133 698.145 127.281C699.805 129.43 701.855 131.139 704.297 132.408C706.738 133.678 709.717 134.312 713.232 134.312C719.971 134.312 725.488 132.408 729.785 128.6C734.082 124.791 736.23 120.006 736.23 114.244C736.23 110.826 735.596 107.896 734.326 105.455C733.057 102.916 731.396 100.67 729.346 98.7168C727.295 96.8613 724.951 95.1523 722.314 93.5898C719.678 92.0273 716.943 90.416 714.111 88.7559C711.182 87.1934 708.203 85.5332 705.176 83.7754C702.148 81.9199 699.414 79.7715 696.973 77.3301C694.531 74.791 692.529 71.9102 690.967 68.6875C689.404 65.3672 688.623 61.4609 688.623 56.9688C688.623 51.6953 689.453 47.1055 691.113 43.1992C692.871 39.293 695.264 36.0215 698.291 33.3848C701.221 30.8457 704.736 28.9414 708.838 27.6719C712.939 26.3047 717.334 25.6211 722.021 25.6211C723.779 25.6211 725.439 25.7187 727.002 25.9141C728.564 26.1094 730.078 26.3047 731.543 26.5C733.008 26.6953 734.473 26.9395 735.938 27.2324C737.402 27.5254 738.965 27.7695 740.625 27.9648L743.408 49.3516H737.109C736.23 43.5898 734.424 39.293 731.689 36.4609C729.053 33.6289 725.098 32.2129 719.824 32.2129C713.086 32.2129 708.008 34.0684 704.59 37.7793C701.27 41.4902 699.609 46.0313 699.609 51.4023C699.609 54.8203 700.342 57.8965 701.807 60.6309C703.271 63.2676 705.176 65.6602 707.52 67.8086C709.863 70.0547 712.5 72.0566 715.43 73.8145C718.457 75.5723 721.533 77.1836 724.658 78.6484C727.588 80.2109 730.518 81.8711 733.447 83.6289C736.377 85.2891 738.965 87.2422 741.211 89.4883C743.555 91.7344 745.41 94.3711 746.777 97.3984C748.242 100.426 748.975 104.039 748.975 108.238C748.975 113.609 747.9 118.346 745.752 122.447C743.604 126.451 740.82 129.771 737.402 132.408C733.984 135.143 730.078 137.193 725.684 138.561C721.289 139.928 716.846 140.611 712.354 140.611C707.861 140.611 703.76 140.221 700.049 139.439C696.436 138.658 692.725 137.389 688.916 135.631L685.4 111.021ZM858.691 57.8477H853.271C851.807 48.8633 848.535 42.3691 843.457 38.3652C838.379 34.2637 831.396 32.2129 822.51 32.2129C816.162 32.2129 810.303 33.4336 804.932 35.875C799.561 38.2188 794.873 41.5391 790.869 45.8359C786.963 50.1328 783.887 55.3086 781.641 61.3633C779.395 67.3203 778.271 73.9121 778.271 81.1387C778.271 89.1465 779.492 96.4219 781.934 102.965C784.375 109.508 787.695 115.123 791.895 119.811C796.094 124.4 801.025 127.965 806.689 130.504C812.451 133.043 818.555 134.312 825 134.312C832.91 134.312 839.209 131.822 843.896 126.842C848.584 121.764 851.66 115.367 853.125 107.652H859.131L855.029 132.701C853.369 133.775 851.221 134.801 848.584 135.777C845.947 136.754 843.115 137.584 840.088 138.268C836.963 139.049 833.838 139.635 830.713 140.025C827.588 140.416 824.756 140.611 822.217 140.611C813.525 140.611 805.615 139.244 798.486 136.51C791.357 133.678 785.205 129.674 780.029 124.498C774.854 119.322 770.85 113.121 768.018 105.895C765.186 98.668 763.77 90.5625 763.77 81.5781C763.77 73.4727 765.381 66.002 768.604 59.166C771.924 52.3301 776.27 46.4219 781.641 41.4414C787.109 36.4609 793.311 32.6035 800.244 29.8691C807.178 27.0371 814.355 25.6211 821.777 25.6211C827.93 25.6211 834.033 26.5 840.088 28.2578C846.24 29.918 851.904 31.7734 857.08 33.8242L858.691 57.8477Z" fill="black"/>
<path d="M761.754 180.783H762.246C762.328 181.135 762.422 181.48 762.527 181.82C762.633 182.16 762.779 182.459 762.967 182.717C763.166 182.986 763.418 183.203 763.723 183.367C764.027 183.52 764.426 183.596 764.918 183.596C765.82 183.596 766.559 183.355 767.133 182.875C767.707 182.395 767.994 181.791 767.994 181.064C767.994 180.643 767.918 180.273 767.766 179.957C767.613 179.629 767.414 179.342 767.168 179.096C766.91 178.85 766.611 178.627 766.271 178.428C765.943 178.229 765.598 178.029 765.234 177.83C764.859 177.643 764.49 177.432 764.127 177.197C763.764 176.963 763.43 176.699 763.125 176.406C762.832 176.102 762.592 175.762 762.404 175.387C762.229 175 762.141 174.566 762.141 174.086C762.141 173.465 762.24 172.926 762.439 172.469C762.639 172.012 762.914 171.637 763.266 171.344C763.617 171.039 764.027 170.816 764.496 170.676C764.965 170.523 765.469 170.447 766.008 170.447C766.184 170.447 766.354 170.459 766.518 170.482C766.682 170.494 766.846 170.506 767.01 170.518C767.174 170.541 767.338 170.57 767.502 170.605C767.678 170.629 767.865 170.652 768.064 170.676L768.363 173.102H767.906C767.789 172.398 767.584 171.871 767.291 171.52C766.998 171.168 766.482 170.992 765.744 170.992C764.83 170.992 764.145 171.238 763.688 171.73C763.242 172.211 763.02 172.785 763.02 173.453C763.02 173.875 763.113 174.256 763.301 174.596C763.488 174.924 763.729 175.223 764.021 175.492C764.326 175.762 764.666 176.002 765.041 176.213C765.416 176.424 765.797 176.623 766.184 176.811C766.559 177.01 766.916 177.221 767.256 177.443C767.607 177.654 767.918 177.895 768.188 178.164C768.457 178.445 768.674 178.768 768.838 179.131C769.002 179.482 769.084 179.887 769.084 180.344C769.084 180.977 768.955 181.533 768.697 182.014C768.451 182.482 768.129 182.881 767.73 183.209C767.32 183.525 766.857 183.766 766.342 183.93C765.838 184.082 765.328 184.158 764.812 184.158C764.332 184.158 763.863 184.111 763.406 184.018C762.961 183.924 762.551 183.789 762.176 183.613L761.754 180.783ZM784.025 177.232C784.025 178.1 783.867 178.949 783.551 179.781C783.234 180.613 782.789 181.352 782.215 181.996C781.652 182.652 780.973 183.18 780.176 183.578C779.379 183.965 778.506 184.158 777.557 184.158C776.678 184.158 775.846 183.977 775.061 183.613C774.287 183.25 773.613 182.758 773.039 182.137C772.453 181.516 771.99 180.795 771.65 179.975C771.322 179.154 771.158 178.287 771.158 177.373C771.158 176.506 771.311 175.662 771.615 174.842C771.932 174.01 772.371 173.266 772.934 172.609C773.508 171.965 774.188 171.443 774.973 171.045C775.77 170.646 776.648 170.447 777.609 170.447C778.477 170.447 779.297 170.635 780.07 171.01C780.855 171.373 781.541 171.865 782.127 172.486C782.701 173.107 783.158 173.828 783.498 174.648C783.85 175.469 784.025 176.33 784.025 177.232ZM782.619 177.76C782.619 177.045 782.514 176.289 782.303 175.492C782.092 174.695 781.77 173.963 781.336 173.295C780.914 172.627 780.369 172.076 779.701 171.643C779.045 171.209 778.271 170.992 777.381 170.992C776.654 170.992 775.992 171.139 775.395 171.432C774.809 171.725 774.299 172.129 773.865 172.645C773.443 173.16 773.115 173.775 772.881 174.49C772.646 175.205 772.529 175.984 772.529 176.828C772.529 177.555 772.635 178.316 772.846 179.113C773.057 179.91 773.373 180.643 773.795 181.311C774.229 181.979 774.773 182.529 775.43 182.963C776.086 183.385 776.865 183.596 777.768 183.596C778.541 183.596 779.227 183.455 779.824 183.174C780.434 182.881 780.943 182.477 781.354 181.961C781.764 181.445 782.074 180.83 782.285 180.115C782.508 179.4 782.619 178.615 782.619 177.76ZM788.824 181.539C788.824 181.961 788.842 182.295 788.877 182.541C788.924 182.787 789.006 182.975 789.123 183.104C789.252 183.232 789.428 183.32 789.65 183.367C789.873 183.402 790.172 183.42 790.547 183.42V183.859C790.301 183.859 789.961 183.859 789.527 183.859C789.105 183.848 788.666 183.842 788.209 183.842C787.74 183.842 787.289 183.848 786.855 183.859C786.434 183.859 786.105 183.859 785.871 183.859V183.42C786.258 183.42 786.568 183.402 786.803 183.367C787.037 183.32 787.219 183.227 787.348 183.086C787.465 182.957 787.541 182.77 787.576 182.523C787.623 182.277 787.646 181.949 787.646 181.539V172.873C787.646 172.51 787.617 172.223 787.559 172.012C787.512 171.789 787.424 171.625 787.295 171.52C787.166 171.402 786.984 171.326 786.75 171.291C786.527 171.244 786.234 171.215 785.871 171.203V170.729C787.277 170.764 788.701 170.781 790.143 170.781C791.584 170.781 793.008 170.764 794.414 170.729L794.52 173.383L794.062 173.365C794.004 172.967 793.934 172.633 793.852 172.363C793.781 172.094 793.652 171.883 793.465 171.73C793.289 171.566 793.037 171.455 792.709 171.396C792.381 171.326 791.941 171.291 791.391 171.291H788.824V176.688H791.391C791.953 176.688 792.34 176.594 792.551 176.406C792.773 176.219 792.902 175.791 792.938 175.123H793.43C793.406 175.357 793.389 175.65 793.377 176.002C793.377 176.342 793.377 176.705 793.377 177.092C793.377 177.479 793.377 177.854 793.377 178.217C793.389 178.58 793.406 178.891 793.43 179.148H792.99C792.955 178.504 792.832 178.059 792.621 177.812C792.422 177.555 792.023 177.426 791.426 177.426H788.824V181.539ZM806.666 173.154H806.191C806.18 172.814 806.15 172.533 806.104 172.311C806.068 172.088 805.986 171.912 805.857 171.783C805.717 171.643 805.523 171.549 805.277 171.502C805.031 171.443 804.697 171.414 804.275 171.414H801.779V181.504C801.779 181.902 801.803 182.225 801.85 182.471C801.896 182.717 801.984 182.91 802.113 183.051C802.242 183.191 802.418 183.291 802.641 183.35C802.863 183.396 803.15 183.42 803.502 183.42V183.859C803.197 183.859 802.84 183.859 802.43 183.859C802.031 183.848 801.621 183.842 801.199 183.842C800.766 183.842 800.344 183.842 799.934 183.842C799.535 183.842 799.189 183.848 798.896 183.859V183.42C799.564 183.42 800.016 183.297 800.25 183.051C800.484 182.805 800.602 182.289 800.602 181.504V171.414H798.457C798.023 171.414 797.666 171.443 797.385 171.502C797.115 171.549 796.893 171.637 796.717 171.766C796.541 171.895 796.4 172.07 796.295 172.293C796.201 172.516 796.113 172.803 796.031 173.154H795.557L795.75 170.729C796.512 170.764 797.373 170.787 798.334 170.799C799.295 170.811 800.273 170.816 801.27 170.816C802.277 170.816 803.262 170.811 804.223 170.799C805.184 170.787 806.051 170.764 806.824 170.729L806.666 173.154ZM814.277 184.158H813.979L809.285 172.697C809.168 172.439 809.062 172.217 808.969 172.029C808.875 171.83 808.764 171.672 808.635 171.555C808.494 171.426 808.318 171.332 808.107 171.273C807.908 171.215 807.645 171.186 807.316 171.186V170.729C807.516 170.752 807.809 170.764 808.195 170.764C808.582 170.764 808.986 170.764 809.408 170.764C809.818 170.764 810.211 170.764 810.586 170.764C810.961 170.752 811.242 170.74 811.43 170.729V171.186C810.879 171.186 810.533 171.279 810.393 171.467C810.252 171.654 810.305 172.064 810.551 172.697L814.436 182.453L816.738 177.496L814.699 172.732C814.453 172.17 814.213 171.771 813.979 171.537C813.744 171.303 813.328 171.186 812.73 171.186V170.729C812.953 170.752 813.252 170.77 813.627 170.781C814.002 170.781 814.389 170.781 814.787 170.781C815.174 170.781 815.537 170.781 815.877 170.781C816.217 170.77 816.469 170.752 816.633 170.729V171.186C816.129 171.186 815.824 171.279 815.719 171.467C815.613 171.654 815.701 172.082 815.982 172.75L817.371 176.107L818.9 172.838C819.182 172.193 819.27 171.76 819.164 171.537C819.059 171.303 818.666 171.186 817.986 171.186V170.729C818.162 170.752 818.396 170.764 818.689 170.764C818.994 170.764 819.311 170.764 819.639 170.764C819.955 170.764 820.254 170.764 820.535 170.764C820.816 170.752 821.027 170.74 821.168 170.729V171.186C820.922 171.186 820.711 171.238 820.535 171.344C820.371 171.438 820.23 171.561 820.113 171.713C819.984 171.865 819.873 172.041 819.779 172.24C819.686 172.428 819.598 172.609 819.516 172.785L817.67 176.811L819.938 182.312L823.436 172.943C823.705 172.193 823.77 171.719 823.629 171.52C823.488 171.309 823.113 171.197 822.504 171.186V170.729C822.68 170.752 822.908 170.764 823.189 170.764C823.471 170.764 823.758 170.764 824.051 170.764C824.355 170.764 824.631 170.764 824.877 170.764C825.135 170.752 825.328 170.74 825.457 170.729V171.186C825.223 171.186 825.041 171.221 824.912 171.291C824.783 171.35 824.672 171.449 824.578 171.59C824.473 171.719 824.379 171.895 824.297 172.117C824.227 172.34 824.133 172.609 824.016 172.926L819.867 184.158H819.568L817.037 178.199L814.277 184.158ZM826.846 181.557C826.611 182.201 826.559 182.676 826.688 182.98C826.816 183.273 827.273 183.42 828.059 183.42V183.859C827.473 183.848 826.828 183.842 826.125 183.842C825.422 183.842 824.789 183.848 824.227 183.859V183.385C824.543 183.385 824.801 183.355 825 183.297C825.199 183.238 825.369 183.133 825.51 182.98C825.65 182.84 825.773 182.652 825.879 182.418C825.984 182.172 826.102 181.867 826.23 181.504L830.203 170.201H830.555L834.404 181.539C834.521 181.902 834.645 182.201 834.773 182.436C834.902 182.67 835.043 182.852 835.195 182.98C835.359 183.121 835.541 183.227 835.74 183.297C835.951 183.355 836.197 183.396 836.479 183.42V183.859C836.186 183.859 835.852 183.859 835.477 183.859C835.113 183.848 834.738 183.842 834.352 183.842C833.953 183.842 833.566 183.848 833.191 183.859C832.828 183.859 832.506 183.859 832.225 183.859V183.42C832.6 183.42 832.893 183.396 833.104 183.35C833.314 183.303 833.455 183.209 833.525 183.068C833.596 182.928 833.602 182.734 833.543 182.488C833.496 182.242 833.414 181.92 833.297 181.521L832.4 178.92H827.76L826.846 181.557ZM832.207 178.322L830.133 172.117L827.988 178.322H832.207ZM840.521 177.637V181.521C840.521 181.908 840.539 182.225 840.574 182.471C840.621 182.705 840.703 182.893 840.82 183.033C840.949 183.174 841.125 183.273 841.348 183.332C841.57 183.391 841.869 183.42 842.244 183.42V183.859C842.01 183.848 841.682 183.842 841.26 183.842C840.838 183.83 840.398 183.824 839.941 183.824C839.484 183.824 839.039 183.83 838.605 183.842C838.184 183.842 837.861 183.848 837.639 183.859V183.438C837.979 183.438 838.254 183.42 838.465 183.385C838.688 183.338 838.863 183.25 838.992 183.121C839.121 182.98 839.209 182.787 839.256 182.541C839.314 182.283 839.344 181.943 839.344 181.521V172.908C839.344 172.545 839.314 172.252 839.256 172.029C839.209 171.807 839.121 171.631 838.992 171.502C838.863 171.385 838.688 171.309 838.465 171.273C838.242 171.227 837.967 171.197 837.639 171.186V170.729C837.932 170.74 838.301 170.752 838.746 170.764C839.191 170.764 839.654 170.764 840.135 170.764C840.615 170.764 841.084 170.764 841.541 170.764C841.998 170.752 842.385 170.74 842.701 170.729C843.498 170.729 844.154 170.846 844.67 171.08C845.197 171.303 845.613 171.578 845.918 171.906C846.211 172.246 846.416 172.609 846.533 172.996C846.662 173.371 846.727 173.717 846.727 174.033C846.727 174.455 846.65 174.848 846.498 175.211C846.357 175.562 846.164 175.879 845.918 176.16C845.672 176.453 845.391 176.699 845.074 176.898C844.758 177.098 844.43 177.244 844.09 177.338C844.312 177.725 844.57 178.146 844.863 178.604C845.168 179.049 845.479 179.488 845.795 179.922C846.111 180.367 846.416 180.789 846.709 181.188C847.014 181.574 847.277 181.896 847.5 182.154C847.781 182.506 848.092 182.805 848.432 183.051C848.771 183.297 849.164 183.42 849.609 183.42V183.859C849.188 183.836 848.766 183.824 848.344 183.824C847.934 183.824 847.541 183.836 847.166 183.859C846.826 183.426 846.469 182.939 846.094 182.4C845.719 181.861 845.344 181.316 844.969 180.766C844.582 180.203 844.207 179.652 843.844 179.113C843.492 178.574 843.17 178.082 842.877 177.637H840.521ZM840.521 176.986C840.662 177.021 840.879 177.045 841.172 177.057C841.465 177.057 841.699 177.057 841.875 177.057C842.531 177.057 843.082 176.975 843.527 176.811C843.984 176.635 844.354 176.406 844.635 176.125C844.916 175.855 845.115 175.551 845.232 175.211C845.361 174.859 845.426 174.508 845.426 174.156C845.426 173.758 845.361 173.383 845.232 173.031C845.115 172.68 844.922 172.375 844.652 172.117C844.383 171.859 844.031 171.66 843.598 171.52C843.164 171.367 842.631 171.291 841.998 171.291C841.729 171.291 841.453 171.303 841.172 171.326C840.902 171.338 840.686 171.355 840.521 171.379V176.986ZM853.617 176.688H856.271C856.787 176.688 857.145 176.576 857.344 176.354C857.555 176.131 857.66 175.703 857.66 175.07H858.082V179.236H857.66C857.66 178.861 857.637 178.557 857.59 178.322C857.555 178.088 857.484 177.906 857.379 177.777C857.273 177.637 857.127 177.543 856.939 177.496C856.764 177.449 856.535 177.426 856.254 177.426H853.617V181.574C853.617 181.949 853.641 182.254 853.688 182.488C853.746 182.711 853.863 182.881 854.039 182.998C854.203 183.127 854.432 183.215 854.725 183.262C855.029 183.297 855.422 183.314 855.902 183.314H857.115C857.607 183.314 858.018 183.279 858.346 183.209C858.674 183.139 858.949 183.016 859.172 182.84C859.395 182.664 859.582 182.43 859.734 182.137C859.887 181.832 860.039 181.451 860.191 180.994H860.648C860.566 181.229 860.484 181.469 860.402 181.715C860.332 181.949 860.262 182.184 860.191 182.418C860.121 182.664 860.057 182.91 859.998 183.156C859.939 183.391 859.887 183.625 859.84 183.859C858.305 183.836 856.752 183.824 855.182 183.824C853.611 183.824 852.105 183.836 850.664 183.859V183.42C851.402 183.42 851.883 183.297 852.105 183.051C852.328 182.805 852.439 182.312 852.439 181.574V172.873C852.439 172.51 852.41 172.217 852.352 171.994C852.305 171.771 852.211 171.602 852.07 171.484C851.941 171.379 851.76 171.309 851.525 171.273C851.303 171.227 851.016 171.203 850.664 171.203V170.746C852.07 170.781 853.518 170.799 855.006 170.799C856.494 170.799 857.9 170.781 859.225 170.746V173.559H858.855C858.809 173.078 858.738 172.691 858.645 172.398C858.562 172.094 858.422 171.859 858.223 171.695C858.035 171.543 857.777 171.438 857.449 171.379C857.121 171.32 856.693 171.291 856.166 171.291H853.617V176.688ZM721.219 195.82C721.219 195.492 721.195 195.223 721.148 195.012C721.102 194.801 721.02 194.637 720.902 194.52C720.773 194.391 720.592 194.303 720.357 194.256C720.135 194.209 719.842 194.186 719.479 194.186V193.746C720.217 193.758 721.043 193.764 721.957 193.764C722.883 193.764 723.768 193.758 724.611 193.746C725.748 193.746 726.762 193.928 727.652 194.291C728.555 194.654 729.311 195.141 729.92 195.75C730.541 196.359 731.01 197.057 731.326 197.842C731.654 198.627 731.818 199.441 731.818 200.285C731.818 201.117 731.666 201.932 731.361 202.729C731.057 203.514 730.6 204.211 729.99 204.82C729.369 205.441 728.596 205.939 727.67 206.314C726.744 206.678 725.654 206.859 724.4 206.859C724.049 206.859 723.662 206.859 723.24 206.859C722.818 206.848 722.385 206.842 721.939 206.842C721.494 206.842 721.055 206.848 720.621 206.859C720.199 206.859 719.818 206.859 719.479 206.859V206.385C719.842 206.385 720.135 206.367 720.357 206.332C720.592 206.285 720.773 206.197 720.902 206.068C721.02 205.939 721.102 205.764 721.148 205.541C721.195 205.307 721.219 205.008 721.219 204.645V195.82ZM722.396 204.662C722.396 205.025 722.426 205.318 722.484 205.541C722.543 205.752 722.654 205.916 722.818 206.033C722.982 206.15 723.217 206.227 723.521 206.262C723.826 206.297 724.219 206.314 724.699 206.314C725.719 206.314 726.598 206.15 727.336 205.822C728.074 205.494 728.678 205.055 729.146 204.504C729.627 203.953 729.979 203.309 730.201 202.57C730.424 201.832 730.535 201.059 730.535 200.25C730.535 199.324 730.389 198.498 730.096 197.771C729.803 197.033 729.387 196.406 728.848 195.891C728.297 195.387 727.629 195 726.844 194.73C726.07 194.449 725.191 194.309 724.207 194.309C723.996 194.309 723.797 194.314 723.609 194.326C723.434 194.326 723.27 194.332 723.117 194.344C722.953 194.355 722.812 194.367 722.695 194.379C722.578 194.379 722.479 194.379 722.396 194.379V204.662ZM736.67 199.688H739.324C739.84 199.688 740.197 199.576 740.396 199.354C740.607 199.131 740.713 198.703 740.713 198.07H741.135V202.236H740.713C740.713 201.861 740.689 201.557 740.643 201.322C740.607 201.088 740.537 200.906 740.432 200.777C740.326 200.637 740.18 200.543 739.992 200.496C739.816 200.449 739.588 200.426 739.307 200.426H736.67V204.574C736.67 204.949 736.693 205.254 736.74 205.488C736.799 205.711 736.916 205.881 737.092 205.998C737.256 206.127 737.484 206.215 737.777 206.262C738.082 206.297 738.475 206.314 738.955 206.314H740.168C740.66 206.314 741.07 206.279 741.398 206.209C741.727 206.139 742.002 206.016 742.225 205.84C742.447 205.664 742.635 205.43 742.787 205.137C742.939 204.832 743.092 204.451 743.244 203.994H743.701C743.619 204.229 743.537 204.469 743.455 204.715C743.385 204.949 743.314 205.184 743.244 205.418C743.174 205.664 743.109 205.91 743.051 206.156C742.992 206.391 742.939 206.625 742.893 206.859C741.357 206.836 739.805 206.824 738.234 206.824C736.664 206.824 735.158 206.836 733.717 206.859V206.42C734.455 206.42 734.936 206.297 735.158 206.051C735.381 205.805 735.492 205.312 735.492 204.574V195.873C735.492 195.51 735.463 195.217 735.404 194.994C735.357 194.771 735.264 194.602 735.123 194.484C734.994 194.379 734.812 194.309 734.578 194.273C734.355 194.227 734.068 194.203 733.717 194.203V193.746C735.123 193.781 736.57 193.799 738.059 193.799C739.547 193.799 740.953 193.781 742.277 193.746V196.559H741.908C741.861 196.078 741.791 195.691 741.697 195.398C741.615 195.094 741.475 194.859 741.275 194.695C741.088 194.543 740.83 194.438 740.502 194.379C740.174 194.32 739.746 194.291 739.219 194.291H736.67V199.688ZM746.391 196.084C746.238 195.697 746.098 195.381 745.969 195.135C745.84 194.889 745.699 194.695 745.547 194.555C745.395 194.414 745.213 194.32 745.002 194.273C744.803 194.215 744.545 194.186 744.229 194.186V193.729C744.451 193.752 744.762 193.764 745.16 193.764C745.559 193.764 745.975 193.764 746.408 193.764C746.842 193.764 747.258 193.764 747.656 193.764C748.066 193.752 748.389 193.74 748.623 193.729V194.203C748.26 194.215 747.979 194.244 747.779 194.291C747.592 194.338 747.463 194.426 747.393 194.555C747.334 194.695 747.328 194.883 747.375 195.117C747.434 195.352 747.539 195.662 747.691 196.049L751.154 205.33L754.688 195.873C754.816 195.51 754.893 195.223 754.916 195.012C754.951 194.789 754.934 194.619 754.863 194.502C754.781 194.385 754.641 194.309 754.441 194.273C754.254 194.238 754.002 194.215 753.686 194.203V193.729C753.908 193.74 754.172 193.752 754.477 193.764C754.793 193.775 755.109 193.781 755.426 193.781C755.742 193.781 756.041 193.781 756.322 193.781C756.604 193.781 756.826 193.77 756.99 193.746V194.186C756.756 194.186 756.557 194.209 756.393 194.256C756.24 194.303 756.105 194.385 755.988 194.502C755.859 194.631 755.736 194.812 755.619 195.047C755.514 195.281 755.391 195.586 755.25 195.961L751.014 207.158H750.732L746.391 196.084ZM760.805 199.688H763.459C763.975 199.688 764.332 199.576 764.531 199.354C764.742 199.131 764.848 198.703 764.848 198.07H765.27V202.236H764.848C764.848 201.861 764.824 201.557 764.777 201.322C764.742 201.088 764.672 200.906 764.566 200.777C764.461 200.637 764.314 200.543 764.127 200.496C763.951 200.449 763.723 200.426 763.441 200.426H760.805V204.574C760.805 204.949 760.828 205.254 760.875 205.488C760.934 205.711 761.051 205.881 761.227 205.998C761.391 206.127 761.619 206.215 761.912 206.262C762.217 206.297 762.609 206.314 763.09 206.314H764.303C764.795 206.314 765.205 206.279 765.533 206.209C765.861 206.139 766.137 206.016 766.359 205.84C766.582 205.664 766.77 205.43 766.922 205.137C767.074 204.832 767.227 204.451 767.379 203.994H767.836C767.754 204.229 767.672 204.469 767.59 204.715C767.52 204.949 767.449 205.184 767.379 205.418C767.309 205.664 767.244 205.91 767.186 206.156C767.127 206.391 767.074 206.625 767.027 206.859C765.492 206.836 763.939 206.824 762.369 206.824C760.799 206.824 759.293 206.836 757.852 206.859V206.42C758.59 206.42 759.07 206.297 759.293 206.051C759.516 205.805 759.627 205.312 759.627 204.574V195.873C759.627 195.51 759.598 195.217 759.539 194.994C759.492 194.771 759.398 194.602 759.258 194.484C759.129 194.379 758.947 194.309 758.713 194.273C758.49 194.227 758.203 194.203 757.852 194.203V193.746C759.258 193.781 760.705 193.799 762.193 193.799C763.682 193.799 765.088 193.781 766.412 193.746V196.559H766.043C765.996 196.078 765.926 195.691 765.832 195.398C765.75 195.094 765.609 194.859 765.41 194.695C765.223 194.543 764.965 194.438 764.637 194.379C764.309 194.32 763.881 194.291 763.354 194.291H760.805V199.688ZM778.084 206.859C777.498 206.848 776.801 206.836 775.992 206.824C775.195 206.812 774.375 206.807 773.531 206.807C772.676 206.807 771.844 206.812 771.035 206.824C770.227 206.836 769.529 206.848 768.943 206.859V206.438C769.295 206.438 769.582 206.414 769.805 206.367C770.027 206.309 770.197 206.209 770.314 206.068C770.443 205.928 770.531 205.734 770.578 205.488C770.625 205.23 770.648 204.896 770.648 204.486V195.908C770.648 195.533 770.619 195.234 770.561 195.012C770.514 194.777 770.426 194.602 770.297 194.484C770.168 194.367 769.992 194.291 769.77 194.256C769.547 194.221 769.271 194.197 768.943 194.186V193.729C769.154 193.752 769.471 193.77 769.893 193.781C770.314 193.781 770.754 193.781 771.211 193.781C771.668 193.781 772.107 193.781 772.529 193.781C772.963 193.77 773.303 193.752 773.549 193.729V194.186C773.197 194.197 772.91 194.221 772.688 194.256C772.465 194.291 772.289 194.373 772.16 194.502C772.031 194.619 771.943 194.789 771.896 195.012C771.85 195.234 771.826 195.533 771.826 195.908V204.486C771.826 204.885 771.867 205.207 771.949 205.453C772.031 205.688 772.189 205.869 772.424 205.998C772.658 206.127 772.992 206.215 773.426 206.262C773.871 206.297 774.445 206.314 775.148 206.314C775.664 206.314 776.098 206.285 776.449 206.227C776.801 206.168 777.1 206.051 777.346 205.875C777.58 205.699 777.779 205.465 777.943 205.172C778.107 204.867 778.26 204.475 778.4 203.994H778.787L778.084 206.859ZM793.254 200.232C793.254 201.1 793.096 201.949 792.779 202.781C792.463 203.613 792.018 204.352 791.443 204.996C790.881 205.652 790.201 206.18 789.404 206.578C788.607 206.965 787.734 207.158 786.785 207.158C785.906 207.158 785.074 206.977 784.289 206.613C783.516 206.25 782.842 205.758 782.268 205.137C781.682 204.516 781.219 203.795 780.879 202.975C780.551 202.154 780.387 201.287 780.387 200.373C780.387 199.506 780.539 198.662 780.844 197.842C781.16 197.01 781.6 196.266 782.162 195.609C782.736 194.965 783.416 194.443 784.201 194.045C784.998 193.646 785.877 193.447 786.838 193.447C787.705 193.447 788.525 193.635 789.299 194.01C790.084 194.373 790.77 194.865 791.355 195.486C791.93 196.107 792.387 196.828 792.727 197.648C793.078 198.469 793.254 199.33 793.254 200.232ZM791.848 200.76C791.848 200.045 791.742 199.289 791.531 198.492C791.32 197.695 790.998 196.963 790.564 196.295C790.143 195.627 789.598 195.076 788.93 194.643C788.273 194.209 787.5 193.992 786.609 193.992C785.883 193.992 785.221 194.139 784.623 194.432C784.037 194.725 783.527 195.129 783.094 195.645C782.672 196.16 782.344 196.775 782.109 197.49C781.875 198.205 781.758 198.984 781.758 199.828C781.758 200.555 781.863 201.316 782.074 202.113C782.285 202.91 782.602 203.643 783.023 204.311C783.457 204.979 784.002 205.529 784.658 205.963C785.314 206.385 786.094 206.596 786.996 206.596C787.77 206.596 788.455 206.455 789.053 206.174C789.662 205.881 790.172 205.477 790.582 204.961C790.992 204.445 791.303 203.83 791.514 203.115C791.736 202.4 791.848 201.615 791.848 200.76ZM797.877 204.504C797.877 204.926 797.9 205.26 797.947 205.506C797.994 205.752 798.082 205.945 798.211 206.086C798.34 206.215 798.516 206.303 798.738 206.35C798.961 206.396 799.248 206.42 799.6 206.42V206.859C799.271 206.859 798.908 206.859 798.51 206.859C798.111 206.848 797.701 206.842 797.279 206.842C796.869 206.842 796.459 206.842 796.049 206.842C795.65 206.842 795.293 206.848 794.977 206.859V206.42C795.316 206.42 795.598 206.396 795.82 206.35C796.043 206.303 796.219 206.215 796.348 206.086C796.477 205.945 796.564 205.752 796.611 205.506C796.67 205.26 796.699 204.926 796.699 204.504V195.873C796.699 195.51 796.676 195.223 796.629 195.012C796.582 194.789 796.5 194.613 796.383 194.484C796.266 194.367 796.096 194.291 795.873 194.256C795.662 194.209 795.381 194.186 795.029 194.186V193.746C795.287 193.758 795.609 193.77 795.996 193.781C796.383 193.781 796.781 193.775 797.191 193.764C797.602 193.764 798 193.764 798.387 193.764C798.773 193.752 799.096 193.74 799.354 193.729C800.654 193.729 801.709 194.068 802.518 194.748C803.326 195.416 803.73 196.318 803.73 197.455C803.73 198.029 803.625 198.545 803.414 199.002C803.215 199.459 802.945 199.846 802.605 200.162C802.266 200.49 801.873 200.748 801.428 200.936C800.982 201.123 800.514 201.223 800.021 201.234C799.857 201.246 799.682 201.258 799.494 201.27C799.318 201.27 799.137 201.27 798.949 201.27C798.75 201.27 798.557 201.27 798.369 201.27C798.193 201.258 798.029 201.252 797.877 201.252V204.504ZM797.877 200.566C798.182 200.602 798.504 200.625 798.844 200.637C799.184 200.648 799.494 200.648 799.775 200.637C800.584 200.613 801.234 200.332 801.727 199.793C802.219 199.254 802.465 198.516 802.465 197.578C802.465 197.027 802.365 196.547 802.166 196.137C801.979 195.727 801.727 195.387 801.41 195.117C801.094 194.836 800.725 194.631 800.303 194.502C799.893 194.361 799.471 194.291 799.037 194.291C798.896 194.291 798.691 194.309 798.422 194.344C798.152 194.367 797.971 194.385 797.877 194.396V200.566ZM813.592 205.225L818.865 193.746C819.006 193.77 819.199 193.787 819.445 193.799C819.703 193.799 819.967 193.799 820.236 193.799C820.518 193.799 820.781 193.793 821.027 193.781C821.273 193.77 821.467 193.752 821.607 193.729V194.186C820.975 194.186 820.535 194.314 820.289 194.572C820.055 194.83 819.938 195.234 819.938 195.785L820.131 204.486C820.143 204.873 820.178 205.195 820.236 205.453C820.295 205.699 820.4 205.893 820.553 206.033C820.693 206.174 820.898 206.273 821.168 206.332C821.438 206.391 821.795 206.42 822.24 206.42V206.859C821.959 206.859 821.578 206.859 821.098 206.859C820.617 206.859 820.119 206.859 819.604 206.859C819.088 206.859 818.596 206.859 818.127 206.859C817.658 206.859 817.295 206.859 817.037 206.859V206.42C817.424 206.42 817.74 206.396 817.986 206.35C818.244 206.291 818.443 206.191 818.584 206.051C818.725 205.91 818.824 205.717 818.883 205.471C818.941 205.213 818.971 204.885 818.971 204.486L818.848 195.275L813.469 206.982H813.205L807.914 195.609L807.738 204.539C807.738 205.219 807.832 205.699 808.02 205.98C808.207 206.25 808.6 206.396 809.197 206.42V206.859C808.916 206.859 808.588 206.859 808.213 206.859C807.838 206.848 807.451 206.842 807.053 206.842C806.654 206.842 806.268 206.842 805.893 206.842C805.518 206.842 805.184 206.848 804.891 206.859V206.42C805.277 206.408 805.605 206.379 805.875 206.332C806.156 206.285 806.385 206.197 806.561 206.068C806.736 205.928 806.865 205.734 806.947 205.488C807.041 205.242 807.1 204.908 807.123 204.486L807.352 195.803C807.352 195.217 807.211 194.801 806.93 194.555C806.648 194.309 806.232 194.186 805.682 194.186V193.729C805.869 193.752 806.08 193.77 806.314 193.781C806.561 193.781 806.801 193.781 807.035 193.781C807.27 193.781 807.492 193.781 807.703 193.781C807.914 193.77 808.084 193.752 808.213 193.729L813.592 205.225ZM826.371 199.688H829.025C829.541 199.688 829.898 199.576 830.098 199.354C830.309 199.131 830.414 198.703 830.414 198.07H830.836V202.236H830.414C830.414 201.861 830.391 201.557 830.344 201.322C830.309 201.088 830.238 200.906 830.133 200.777C830.027 200.637 829.881 200.543 829.693 200.496C829.518 200.449 829.289 200.426 829.008 200.426H826.371V204.574C826.371 204.949 826.395 205.254 826.441 205.488C826.5 205.711 826.617 205.881 826.793 205.998C826.957 206.127 827.186 206.215 827.479 206.262C827.783 206.297 828.176 206.314 828.656 206.314H829.869C830.361 206.314 830.771 206.279 831.1 206.209C831.428 206.139 831.703 206.016 831.926 205.84C832.148 205.664 832.336 205.43 832.488 205.137C832.641 204.832 832.793 204.451 832.945 203.994H833.402C833.32 204.229 833.238 204.469 833.156 204.715C833.086 204.949 833.016 205.184 832.945 205.418C832.875 205.664 832.811 205.91 832.752 206.156C832.693 206.391 832.641 206.625 832.594 206.859C831.059 206.836 829.506 206.824 827.936 206.824C826.365 206.824 824.859 206.836 823.418 206.859V206.42C824.156 206.42 824.637 206.297 824.859 206.051C825.082 205.805 825.193 205.312 825.193 204.574V195.873C825.193 195.51 825.164 195.217 825.105 194.994C825.059 194.771 824.965 194.602 824.824 194.484C824.695 194.379 824.514 194.309 824.279 194.273C824.057 194.227 823.77 194.203 823.418 194.203V193.746C824.824 193.781 826.271 193.799 827.76 193.799C829.248 193.799 830.654 193.781 831.979 193.746V196.559H831.609C831.562 196.078 831.492 195.691 831.398 195.398C831.316 195.094 831.176 194.859 830.977 194.695C830.789 194.543 830.531 194.438 830.203 194.379C829.875 194.32 829.447 194.291 828.92 194.291H826.371V199.688ZM846.832 207.053H846.428L837.006 195.539V204.521C837.006 204.955 837.029 205.301 837.076 205.559C837.135 205.805 837.234 205.992 837.375 206.121C837.516 206.25 837.697 206.332 837.92 206.367C838.143 206.402 838.424 206.42 838.764 206.42V206.859C838.459 206.859 838.113 206.859 837.727 206.859C837.352 206.848 836.971 206.842 836.584 206.842C836.186 206.842 835.799 206.842 835.424 206.842C835.049 206.842 834.715 206.848 834.422 206.859V206.42C834.785 206.42 835.096 206.402 835.354 206.367C835.611 206.32 835.816 206.232 835.969 206.104C836.133 205.975 836.25 205.787 836.32 205.541C836.391 205.295 836.426 204.961 836.426 204.539V195.979C836.426 195.287 836.238 194.818 835.863 194.572C835.488 194.314 834.902 194.186 834.105 194.186V193.746C834.246 193.77 834.439 193.781 834.686 193.781C834.932 193.781 835.189 193.781 835.459 193.781C835.729 193.781 835.98 193.781 836.215 193.781C836.461 193.77 836.648 193.758 836.777 193.746L846.252 205.066V195.961C846.252 195.598 846.223 195.305 846.164 195.082C846.117 194.848 846.029 194.666 845.9 194.537C845.771 194.408 845.59 194.32 845.355 194.273C845.121 194.227 844.822 194.197 844.459 194.186V193.729C844.682 193.74 844.986 193.752 845.373 193.764C845.76 193.764 846.152 193.764 846.551 193.764C846.961 193.764 847.354 193.764 847.729 193.764C848.104 193.752 848.396 193.74 848.607 193.729V194.186C848.221 194.186 847.91 194.209 847.676 194.256C847.453 194.291 847.277 194.373 847.148 194.502C847.02 194.631 846.932 194.812 846.885 195.047C846.85 195.27 846.832 195.574 846.832 195.961V207.053ZM860.455 196.154H859.98C859.969 195.814 859.939 195.533 859.893 195.311C859.857 195.088 859.775 194.912 859.646 194.783C859.506 194.643 859.312 194.549 859.066 194.502C858.82 194.443 858.486 194.414 858.064 194.414H855.568V204.504C855.568 204.902 855.592 205.225 855.639 205.471C855.686 205.717 855.773 205.91 855.902 206.051C856.031 206.191 856.207 206.291 856.43 206.35C856.652 206.396 856.939 206.42 857.291 206.42V206.859C856.986 206.859 856.629 206.859 856.219 206.859C855.82 206.848 855.41 206.842 854.988 206.842C854.555 206.842 854.133 206.842 853.723 206.842C853.324 206.842 852.979 206.848 852.686 206.859V206.42C853.354 206.42 853.805 206.297 854.039 206.051C854.273 205.805 854.391 205.289 854.391 204.504V194.414H852.246C851.812 194.414 851.455 194.443 851.174 194.502C850.904 194.549 850.682 194.637 850.506 194.766C850.33 194.895 850.189 195.07 850.084 195.293C849.99 195.516 849.902 195.803 849.82 196.154H849.346L849.539 193.729C850.301 193.764 851.162 193.787 852.123 193.799C853.084 193.811 854.062 193.816 855.059 193.816C856.066 193.816 857.051 193.811 858.012 193.799C858.973 193.787 859.84 193.764 860.613 193.729L860.455 196.154ZM739.658 218.891C739.658 218.516 739.629 218.217 739.57 217.994C739.523 217.771 739.436 217.602 739.307 217.484C739.178 217.367 739.002 217.291 738.779 217.256C738.557 217.221 738.275 217.197 737.936 217.186V216.729C738.158 216.752 738.475 216.764 738.885 216.764C739.307 216.764 739.752 216.764 740.221 216.764C740.678 216.764 741.117 216.764 741.539 216.764C741.973 216.752 742.307 216.74 742.541 216.729V217.186C742.201 217.197 741.92 217.221 741.697 217.256C741.475 217.291 741.299 217.367 741.17 217.484C741.041 217.602 740.953 217.771 740.906 217.994C740.859 218.217 740.836 218.516 740.836 218.891V227.521C740.836 228.295 740.947 228.805 741.17 229.051C741.404 229.297 741.861 229.42 742.541 229.42V229.859C742.307 229.859 741.979 229.859 741.557 229.859C741.146 229.848 740.713 229.842 740.256 229.842C739.787 229.842 739.342 229.842 738.92 229.842C738.498 229.842 738.17 229.848 737.936 229.859V229.42C738.615 229.42 739.072 229.297 739.307 229.051C739.541 228.793 739.658 228.283 739.658 227.521V218.891ZM756.199 230.053H755.795L746.373 218.539V227.521C746.373 227.955 746.396 228.301 746.443 228.559C746.502 228.805 746.602 228.992 746.742 229.121C746.883 229.25 747.064 229.332 747.287 229.367C747.51 229.402 747.791 229.42 748.131 229.42V229.859C747.826 229.859 747.48 229.859 747.094 229.859C746.719 229.848 746.338 229.842 745.951 229.842C745.553 229.842 745.166 229.842 744.791 229.842C744.416 229.842 744.082 229.848 743.789 229.859V229.42C744.152 229.42 744.463 229.402 744.721 229.367C744.979 229.32 745.184 229.232 745.336 229.104C745.5 228.975 745.617 228.787 745.688 228.541C745.758 228.295 745.793 227.961 745.793 227.539V218.979C745.793 218.287 745.605 217.818 745.23 217.572C744.855 217.314 744.27 217.186 743.473 217.186V216.746C743.613 216.77 743.807 216.781 744.053 216.781C744.299 216.781 744.557 216.781 744.826 216.781C745.096 216.781 745.348 216.781 745.582 216.781C745.828 216.77 746.016 216.758 746.145 216.746L755.619 228.066V218.961C755.619 218.598 755.59 218.305 755.531 218.082C755.484 217.848 755.396 217.666 755.268 217.537C755.139 217.408 754.957 217.32 754.723 217.273C754.488 217.227 754.189 217.197 753.826 217.186V216.729C754.049 216.74 754.354 216.752 754.74 216.764C755.127 216.764 755.52 216.764 755.918 216.764C756.328 216.764 756.721 216.764 757.096 216.764C757.471 216.752 757.764 216.74 757.975 216.729V217.186C757.588 217.186 757.277 217.209 757.043 217.256C756.82 217.291 756.645 217.373 756.516 217.502C756.387 217.631 756.299 217.812 756.252 218.047C756.217 218.27 756.199 218.574 756.199 218.961V230.053ZM774.498 219.154H774.023C774.012 218.814 773.982 218.533 773.936 218.311C773.9 218.088 773.818 217.912 773.689 217.783C773.549 217.643 773.355 217.549 773.109 217.502C772.863 217.443 772.529 217.414 772.107 217.414H769.611V227.504C769.611 227.902 769.635 228.225 769.682 228.471C769.729 228.717 769.816 228.91 769.945 229.051C770.074 229.191 770.25 229.291 770.473 229.35C770.695 229.396 770.982 229.42 771.334 229.42V229.859C771.029 229.859 770.672 229.859 770.262 229.859C769.863 229.848 769.453 229.842 769.031 229.842C768.598 229.842 768.176 229.842 767.766 229.842C767.367 229.842 767.021 229.848 766.729 229.859V229.42C767.396 229.42 767.848 229.297 768.082 229.051C768.316 228.805 768.434 228.289 768.434 227.504V217.414H766.289C765.855 217.414 765.498 217.443 765.217 217.502C764.947 217.549 764.725 217.637 764.549 217.766C764.373 217.895 764.232 218.07 764.127 218.293C764.033 218.516 763.945 218.803 763.863 219.154H763.389L763.582 216.729C764.344 216.764 765.205 216.787 766.166 216.799C767.127 216.811 768.105 216.816 769.102 216.816C770.109 216.816 771.094 216.811 772.055 216.799C773.016 216.787 773.883 216.764 774.656 216.729L774.498 219.154ZM789.088 223.232C789.088 224.1 788.93 224.949 788.613 225.781C788.297 226.613 787.852 227.352 787.277 227.996C786.715 228.652 786.035 229.18 785.238 229.578C784.441 229.965 783.568 230.158 782.619 230.158C781.74 230.158 780.908 229.977 780.123 229.613C779.35 229.25 778.676 228.758 778.102 228.137C777.516 227.516 777.053 226.795 776.713 225.975C776.385 225.154 776.221 224.287 776.221 223.373C776.221 222.506 776.373 221.662 776.678 220.842C776.994 220.01 777.434 219.266 777.996 218.609C778.57 217.965 779.25 217.443 780.035 217.045C780.832 216.646 781.711 216.447 782.672 216.447C783.539 216.447 784.359 216.635 785.133 217.01C785.918 217.373 786.604 217.865 787.189 218.486C787.764 219.107 788.221 219.828 788.561 220.648C788.912 221.469 789.088 222.33 789.088 223.232ZM787.682 223.76C787.682 223.045 787.576 222.289 787.365 221.492C787.154 220.695 786.832 219.963 786.398 219.295C785.977 218.627 785.432 218.076 784.764 217.643C784.107 217.209 783.334 216.992 782.443 216.992C781.717 216.992 781.055 217.139 780.457 217.432C779.871 217.725 779.361 218.129 778.928 218.645C778.506 219.16 778.178 219.775 777.943 220.49C777.709 221.205 777.592 221.984 777.592 222.828C777.592 223.555 777.697 224.316 777.908 225.113C778.119 225.91 778.436 226.643 778.857 227.311C779.291 227.979 779.836 228.529 780.492 228.963C781.148 229.385 781.928 229.596 782.83 229.596C783.604 229.596 784.289 229.455 784.887 229.174C785.496 228.881 786.006 228.477 786.416 227.961C786.826 227.445 787.137 226.83 787.348 226.115C787.57 225.4 787.682 224.615 787.682 223.76ZM793.887 223.637V227.521C793.887 227.908 793.904 228.225 793.939 228.471C793.986 228.705 794.068 228.893 794.186 229.033C794.314 229.174 794.49 229.273 794.713 229.332C794.936 229.391 795.234 229.42 795.609 229.42V229.859C795.375 229.848 795.047 229.842 794.625 229.842C794.203 229.83 793.764 229.824 793.307 229.824C792.85 229.824 792.404 229.83 791.971 229.842C791.549 229.842 791.227 229.848 791.004 229.859V229.438C791.344 229.438 791.619 229.42 791.83 229.385C792.053 229.338 792.229 229.25 792.357 229.121C792.486 228.98 792.574 228.787 792.621 228.541C792.68 228.283 792.709 227.943 792.709 227.521V218.908C792.709 218.545 792.68 218.252 792.621 218.029C792.574 217.807 792.486 217.631 792.357 217.502C792.229 217.385 792.053 217.309 791.83 217.273C791.607 217.227 791.332 217.197 791.004 217.186V216.729C791.297 216.74 791.666 216.752 792.111 216.764C792.557 216.764 793.02 216.764 793.5 216.764C793.98 216.764 794.449 216.764 794.906 216.764C795.363 216.752 795.75 216.74 796.066 216.729C796.863 216.729 797.52 216.846 798.035 217.08C798.562 217.303 798.979 217.578 799.283 217.906C799.576 218.246 799.781 218.609 799.898 218.996C800.027 219.371 800.092 219.717 800.092 220.033C800.092 220.455 800.016 220.848 799.863 221.211C799.723 221.562 799.529 221.879 799.283 222.16C799.037 222.453 798.756 222.699 798.439 222.898C798.123 223.098 797.795 223.244 797.455 223.338C797.678 223.725 797.936 224.146 798.229 224.604C798.533 225.049 798.844 225.488 799.16 225.922C799.477 226.367 799.781 226.789 800.074 227.188C800.379 227.574 800.643 227.896 800.865 228.154C801.146 228.506 801.457 228.805 801.797 229.051C802.137 229.297 802.529 229.42 802.975 229.42V229.859C802.553 229.836 802.131 229.824 801.709 229.824C801.299 229.824 800.906 229.836 800.531 229.859C800.191 229.426 799.834 228.939 799.459 228.4C799.084 227.861 798.709 227.316 798.334 226.766C797.947 226.203 797.572 225.652 797.209 225.113C796.857 224.574 796.535 224.082 796.242 223.637H793.887ZM793.887 222.986C794.027 223.021 794.244 223.045 794.537 223.057C794.83 223.057 795.064 223.057 795.24 223.057C795.896 223.057 796.447 222.975 796.893 222.811C797.35 222.635 797.719 222.406 798 222.125C798.281 221.855 798.48 221.551 798.598 221.211C798.727 220.859 798.791 220.508 798.791 220.156C798.791 219.758 798.727 219.383 798.598 219.031C798.48 218.68 798.287 218.375 798.018 218.117C797.748 217.859 797.396 217.66 796.963 217.52C796.529 217.367 795.996 217.291 795.363 217.291C795.094 217.291 794.818 217.303 794.537 217.326C794.268 217.338 794.051 217.355 793.887 217.379V222.986ZM817.389 223.232C817.389 224.1 817.23 224.949 816.914 225.781C816.598 226.613 816.152 227.352 815.578 227.996C815.016 228.652 814.336 229.18 813.539 229.578C812.742 229.965 811.869 230.158 810.92 230.158C810.041 230.158 809.209 229.977 808.424 229.613C807.65 229.25 806.977 228.758 806.402 228.137C805.816 227.516 805.354 226.795 805.014 225.975C804.686 225.154 804.521 224.287 804.521 223.373C804.521 222.506 804.674 221.662 804.979 220.842C805.295 220.01 805.734 219.266 806.297 218.609C806.871 217.965 807.551 217.443 808.336 217.045C809.133 216.646 810.012 216.447 810.973 216.447C811.84 216.447 812.66 216.635 813.434 217.01C814.219 217.373 814.904 217.865 815.49 218.486C816.064 219.107 816.521 219.828 816.861 220.648C817.213 221.469 817.389 222.33 817.389 223.232ZM815.982 223.76C815.982 223.045 815.877 222.289 815.666 221.492C815.455 220.695 815.133 219.963 814.699 219.295C814.277 218.627 813.732 218.076 813.064 217.643C812.408 217.209 811.635 216.992 810.744 216.992C810.018 216.992 809.355 217.139 808.758 217.432C808.172 217.725 807.662 218.129 807.229 218.645C806.807 219.16 806.479 219.775 806.244 220.49C806.01 221.205 805.893 221.984 805.893 222.828C805.893 223.555 805.998 224.316 806.209 225.113C806.42 225.91 806.736 226.643 807.158 227.311C807.592 227.979 808.137 228.529 808.793 228.963C809.449 229.385 810.229 229.596 811.131 229.596C811.904 229.596 812.59 229.455 813.188 229.174C813.797 228.881 814.307 228.477 814.717 227.961C815.127 227.445 815.438 226.83 815.648 226.115C815.871 225.4 815.982 224.615 815.982 223.76ZM831.627 230.053H831.223L821.801 218.539V227.521C821.801 227.955 821.824 228.301 821.871 228.559C821.93 228.805 822.029 228.992 822.17 229.121C822.311 229.25 822.492 229.332 822.715 229.367C822.938 229.402 823.219 229.42 823.559 229.42V229.859C823.254 229.859 822.908 229.859 822.521 229.859C822.146 229.848 821.766 229.842 821.379 229.842C820.98 229.842 820.594 229.842 820.219 229.842C819.844 229.842 819.51 229.848 819.217 229.859V229.42C819.58 229.42 819.891 229.402 820.148 229.367C820.406 229.32 820.611 229.232 820.764 229.104C820.928 228.975 821.045 228.787 821.115 228.541C821.186 228.295 821.221 227.961 821.221 227.539V218.979C821.221 218.287 821.033 217.818 820.658 217.572C820.283 217.314 819.697 217.186 818.9 217.186V216.746C819.041 216.77 819.234 216.781 819.48 216.781C819.727 216.781 819.984 216.781 820.254 216.781C820.523 216.781 820.775 216.781 821.01 216.781C821.256 216.77 821.443 216.758 821.572 216.746L831.047 228.066V218.961C831.047 218.598 831.018 218.305 830.959 218.082C830.912 217.848 830.824 217.666 830.695 217.537C830.566 217.408 830.385 217.32 830.15 217.273C829.916 217.227 829.617 217.197 829.254 217.186V216.729C829.477 216.74 829.781 216.752 830.168 216.764C830.555 216.764 830.947 216.764 831.346 216.764C831.756 216.764 832.148 216.764 832.523 216.764C832.898 216.752 833.191 216.74 833.402 216.729V217.186C833.016 217.186 832.705 217.209 832.471 217.256C832.248 217.291 832.072 217.373 831.943 217.502C831.814 217.631 831.727 217.812 831.68 218.047C831.645 218.27 831.627 218.574 831.627 218.961V230.053ZM845.25 219.154H844.775C844.764 218.814 844.734 218.533 844.688 218.311C844.652 218.088 844.57 217.912 844.441 217.783C844.301 217.643 844.107 217.549 843.861 217.502C843.615 217.443 843.281 217.414 842.859 217.414H840.363V227.504C840.363 227.902 840.387 228.225 840.434 228.471C840.48 228.717 840.568 228.91 840.697 229.051C840.826 229.191 841.002 229.291 841.225 229.35C841.447 229.396 841.734 229.42 842.086 229.42V229.859C841.781 229.859 841.424 229.859 841.014 229.859C840.615 229.848 840.205 229.842 839.783 229.842C839.35 229.842 838.928 229.842 838.518 229.842C838.119 229.842 837.773 229.848 837.48 229.859V229.42C838.148 229.42 838.6 229.297 838.834 229.051C839.068 228.805 839.186 228.289 839.186 227.504V217.414H837.041C836.607 217.414 836.25 217.443 835.969 217.502C835.699 217.549 835.477 217.637 835.301 217.766C835.125 217.895 834.984 218.07 834.879 218.293C834.785 218.516 834.697 218.803 834.615 219.154H834.141L834.334 216.729C835.096 216.764 835.957 216.787 836.918 216.799C837.879 216.811 838.857 216.816 839.854 216.816C840.861 216.816 841.846 216.811 842.807 216.799C843.768 216.787 844.635 216.764 845.408 216.729L845.25 219.154ZM859.84 223.232C859.84 224.1 859.682 224.949 859.365 225.781C859.049 226.613 858.604 227.352 858.029 227.996C857.467 228.652 856.787 229.18 855.99 229.578C855.193 229.965 854.32 230.158 853.371 230.158C852.492 230.158 851.66 229.977 850.875 229.613C850.102 229.25 849.428 228.758 848.854 228.137C848.268 227.516 847.805 226.795 847.465 225.975C847.137 225.154 846.973 224.287 846.973 223.373C846.973 222.506 847.125 221.662 847.43 220.842C847.746 220.01 848.186 219.266 848.748 218.609C849.322 217.965 850.002 217.443 850.787 217.045C851.584 216.646 852.463 216.447 853.424 216.447C854.291 216.447 855.111 216.635 855.885 217.01C856.67 217.373 857.355 217.865 857.941 218.486C858.516 219.107 858.973 219.828 859.312 220.648C859.664 221.469 859.84 222.33 859.84 223.232ZM858.434 223.76C858.434 223.045 858.328 222.289 858.117 221.492C857.906 220.695 857.584 219.963 857.15 219.295C856.729 218.627 856.184 218.076 855.516 217.643C854.859 217.209 854.086 216.992 853.195 216.992C852.469 216.992 851.807 217.139 851.209 217.432C850.623 217.725 850.113 218.129 849.68 218.645C849.258 219.16 848.93 219.775 848.695 220.49C848.461 221.205 848.344 221.984 848.344 222.828C848.344 223.555 848.449 224.316 848.66 225.113C848.871 225.91 849.188 226.643 849.609 227.311C850.043 227.979 850.588 228.529 851.244 228.963C851.9 229.385 852.68 229.596 853.582 229.596C854.355 229.596 855.041 229.455 855.639 229.174C856.248 228.881 856.758 228.477 857.168 227.961C857.578 227.445 857.889 226.83 858.1 226.115C858.322 225.4 858.434 224.615 858.434 223.76Z" fill="black"/>
</svg>